<?xml version="1.0" encoding="iso-8859-1"?>
<!-- Generator: Adobe Illustrator 19.0.0, SVG Export Plug-In . SVG Version: 6.00 Build 0)  -->
<svg version="1.1" id="Capa_1" xmlns="http://www.w3.org/2000/svg" xmlns:xlink="http://www.w3.org/1999/xlink" x="0px" y="0px"
	 viewBox="0 0 512 512" style="enable-background:new 0 0 512 512;" xml:space="preserve">
<g>
	<g>
		<path d="M362.152,330.222l-27.133-27.132c-1.13-1.128-2.411-1.274-3.29-1.193c-0.878,0.079-2.114,0.448-3.023,1.758
			l-14.872,21.433c-3.11,4.483-8.349,7.001-13.789,6.651c-2.056-0.134-50.744-3.671-83.428-36.357
			c-32.684-32.684-36.221-81.372-36.355-83.428c-0.357-5.445,2.168-10.678,6.65-13.788l21.433-14.872
			c1.312-0.91,1.68-2.147,1.759-3.024c0.079-0.877-0.065-2.159-1.192-3.288l-27.135-27.135c-0.816-0.816-1.9-1.251-2.957-1.251
			c-0.574,0-1.14,0.128-1.652,0.393c-18.894,9.789-25.415,28.334-27.558,42.168c-5.892,38.037,13.522,85.835,49.459,121.773
			c35.939,35.938,83.739,55.349,121.774,49.459c13.834-2.142,32.379-8.663,42.168-27.557
			C363.763,333.376,363.411,331.48,362.152,330.222z"/>
	</g>
</g>
<g>
	<g>
		<path d="M437.016,74.984C388.662,26.629,324.373,0,255.99,0S123.318,26.629,74.964,74.984
			C33.868,116.08,7.777,170.471,1.497,228.138c-5.937,54.514,5.911,110.004,33.4,157.041L8.218,484.74
			c-1.438,5.365,0.096,11.09,4.025,15.018c3.927,3.928,9.654,5.462,15.016,4.024l99.562-26.677
			C165.926,499.957,210.874,512,256.245,512c9.203,0,18.424-0.495,27.617-1.497c57.667-6.28,112.057-32.37,153.154-73.468
			C485.37,388.682,512,324.392,512,256.01S485.37,123.338,437.016,74.984z M390.619,349.136
			c-12.319,23.775-35.408,39.394-65.017,43.982c-6.168,0.956-12.479,1.424-18.886,1.424c-43.688,0-91.808-21.798-129.634-59.624
			c-43.371-43.371-65.672-100.281-58.199-148.52c4.587-29.608,20.206-52.699,43.982-65.016c13.56-7.026,29.996-4.424,40.899,6.479
			l27.134,27.134c7.401,7.4,11.111,17.624,10.176,28.05c-0.933,10.426-6.402,19.829-15.002,25.797l-13.624,9.453
			c2.286,12.836,8.767,37.713,26.155,55.103c17.383,17.384,42.249,23.865,55.103,26.154l9.452-13.621
			c5.967-8.599,15.368-14.068,25.794-15.003c10.419-0.937,20.651,2.774,28.053,10.176l27.134,27.134
			C395.041,319.138,397.645,335.574,390.619,349.136z"/>
	</g>
</g>
<g>
</g>
<g>
</g>
<g>
</g>
<g>
</g>
<g>
</g>
<g>
</g>
<g>
</g>
<g>
</g>
<g>
</g>
<g>
</g>
<g>
</g>
<g>
</g>
<g>
</g>
<g>
</g>
<g>
</g>
</svg>
