<?xml version="1.0" encoding="iso-8859-1"?>
<!-- Generator: Adobe Illustrator 19.0.0, SVG Export Plug-In . SVG Version: 6.00 Build 0)  -->
<svg version="1.1" id="Capa_1" xmlns="http://www.w3.org/2000/svg" xmlns:xlink="http://www.w3.org/1999/xlink" x="0px" y="0px"
	 viewBox="0 0 480 480" style="enable-background:new 0 0 480 480;" xml:space="preserve">
<path style="fill:#63C8CD;" d="M376,4c-57.438,0-104,46.562-104,104v6.56L236.56,212H288v56h88v40h104V108
	C480,50.562,433.438,4,376,4z"/>
<path style="fill:#1895AA;" d="M339.04,132c-12.265-0.005-24.029-4.866-32.72-13.52l11.36-11.36
	c11.804,11.779,30.916,11.779,42.72,0l11.36,11.36C363.069,127.134,351.305,131.995,339.04,132L339.04,132z"/>
<path style="fill:#EF9F35;" d="M208,282.56V276c0-57.438-46.562-104-104-104S0,218.562,0,276v200h104v-40h88v-56h51.44L208,282.56z"
	/>
<g>
	<path style="fill:#5A5A60;" d="M140.96,300c-12.265-0.005-24.029-4.866-32.72-13.52L120,275.12
		c11.804,11.779,30.916,11.779,42.72,0l11.36,11.36C165.291,295.232,153.363,300.101,140.96,300z"/>
	<path style="fill:#5A5A60;" d="M240,68h16v16h-16V68z"/>
	<path style="fill:#5A5A60;" d="M88,108v20.72l-10.32-10.4l-11.36,11.36L96,159.28l29.68-29.6l-11.36-11.36L104,128.72V108
		c0-13.255,10.745-24,24-24l0,0h96V68h-96C105.909,68,88,85.909,88,108z"/>
	<path style="fill:#5A5A60;" d="M461.68,350.32L432,320.72l-29.68,29.6l11.36,11.36l10.32-10.4V388c0,13.255-10.745,24-24,24H240v16
		h160c22.091,0,40-17.909,40-40v-36.72l10.32,10.4L461.68,350.32z"/>
	<path style="fill:#5A5A60;" d="M208,412h16v16h-16V412z"/>
</g>
<g>
</g>
<g>
</g>
<g>
</g>
<g>
</g>
<g>
</g>
<g>
</g>
<g>
</g>
<g>
</g>
<g>
</g>
<g>
</g>
<g>
</g>
<g>
</g>
<g>
</g>
<g>
</g>
<g>
</g>
</svg>
