<svg id="Layer_1_1_" enable-background="new 0 0 64 64" height="512" viewBox="0 0 64 64" width="512" xmlns="http://www.w3.org/2000/svg"><path d="m60.69 60.689c-1.733-1.733-4.041-2.769-6.487-2.913l-9.438-.555c-2.114-.124-3.765-1.875-3.765-3.993v-4.064l-.008-.005c1.123.313 2.145.372 2.945.028.7-.3 1.421-.891 2.11-1.609 2.452-2.554 3.887-5.917 4.245-9.44l.047-.463c.173-1.704 1.317-3.174 2.947-3.701 1.12-.362 2.332-.532 3.486-.994.616-.246.826-1.013.421-1.538l-6.723-11.229c-2.352-10.6-10.359-18.324-21.905-17.082-9.215.991-16.791 7.473-18.928 16.491-2.364 9.981 2.074 19.2 9.609 23.971 2.323 1.471 3.754 4.004 3.754 6.752v2.883c0 2.118-1.651 3.869-3.765 3.993l-9.438.555c-2.446.144-4.754 1.18-6.487 2.913l-.31.311h58z" fill="#f2f8ff"/><path d="m13.797 57.776 9.438-.555c2.114-.124 3.765-1.875 3.765-3.993v-2.883c0-2.749-1.431-5.281-3.753-6.752-7.536-4.771-11.974-13.99-9.609-23.971 2.136-9.018 9.713-15.5 18.928-16.491.137-.015.266-.012.402-.024-1.403-.137-2.869-.14-4.402.024-9.216.991-16.792 7.473-18.929 16.491-2.364 9.981 2.074 19.2 9.609 23.971 2.323 1.471 3.754 4.004 3.754 6.752v2.883c0 2.118-1.651 3.869-3.765 3.993l-9.438.555c-2.446.144-4.754 1.18-6.487 2.913l-.31.311h4l.31-.31c1.733-1.733 4.041-2.77 6.487-2.914z" fill="#303030" opacity=".12"/><path d="m23.143 7.429-10.234 17.057c-.4.667.08 1.514.857 1.514h20.468c.777 0 1.257-.848.857-1.514l-10.234-17.057c-.388-.647-1.326-.647-1.714 0z" fill="#57a5ff"/><path d="m42 28c-.153 0-.307-.035-.447-.105l-3.106-1.553c-.494-.247-.694-.848-.447-1.342.247-.494.848-.694 1.342-.447l2.211 1.106c.282.141.613.141.894 0l4.211-2.106c.494-.247 1.095-.047 1.342.447.247.494.047 1.095-.447 1.342l-5.106 2.553c-.14.07-.294.105-.447.105z" fill="#303030" opacity=".12"/><g fill="#004fa8"><path d="m24 19c-.552 0-1-.448-1-1v-4c0-.552.448-1 1-1 .552 0 1 .448 1 1v4c0 .552-.448 1-1 1z"/><path d="m24 23c-.552 0-1-.448-1-1 0-.552.448-1 1-1 .552 0 1 .448 1 1 0 .552-.448 1-1 1z"/><path d="m32 31h-16c-.552 0-1-.448-1-1 0-.552.448-1 1-1h16c.552 0 1 .448 1 1 0 .552-.448 1-1 1z"/><path d="m29 35h-10c-.552 0-1-.448-1-1 0-.552.448-1 1-1h10c.552 0 1 .448 1 1 0 .552-.448 1-1 1z"/><path d="m26 39h-4c-.552 0-1-.448-1-1 0-.552.448-1 1-1h4c.552 0 1 .448 1 1 0 .552-.448 1-1 1z"/></g></svg>