<svg height="512.001pt" viewBox="0 0 512.001 512.001" width="512.001pt" xmlns="http://www.w3.org/2000/svg"><path d="m165.867188 398.402344c-1.257813 0-2.53125-.152344-3.804688-.476563l-25.3125-6.414062c-8.273438-2.097657-13.28125-10.503907-11.183594-18.777344s10.507813-13.277344 18.777344-11.183594l11.1875 2.835938 27.222656-85.925781c.859375-2.710938 2.445313-5.132813 4.59375-6.996094l88.105469-76.578125c6.445313-5.597657 16.203125-4.914063 21.800781 1.527343 5.597656 6.441407 4.917969 16.203126-1.527344 21.800782l-84.824218 73.722656-30.308594 95.675781c-2.078125 6.550781-8.140625 10.789063-14.726562 10.789063zm0 0" fill="#685c79"/><path d="m231.871094 157.523438c-1.292969 0-2.601563-.164063-3.890625-.5l-79.984375-20.828126c-8.261719-2.148437-13.210938-10.589843-11.058594-18.847656 2.148438-8.257812 10.589844-13.214844 18.847656-11.058594l69.992188 18.226563 47.488281-62.769531c5.148437-6.808594 14.84375-8.148438 21.648437-3.003906 6.804688 5.152343 8.148438 14.84375 3 21.648437l-53.71875 71.003906c-2.964843 3.917969-7.554687 6.128907-12.324218 6.128907zm0 0" fill="#e8916f"/><path d="m432.101562 416.710938c-.515624 0-1.039062-.027344-1.5625-.078126-8.492187-.855468-14.683593-8.429687-13.832031-16.917968l1.9375-19.320313-82.503906-51.09375c-2.816406-1.742187-4.996094-4.34375-6.222656-7.417969l-45.464844-114.15625c-3.15625-7.929687.707031-16.917968 8.636719-20.074218 7.929687-3.15625 16.917968.707031 20.074218 8.636718l43.582032 109.421876 86.371094 53.488281c5.019531 3.109375 7.828124 8.804687 7.242187 14.679687l-2.902344 28.917969c-.800781 7.96875-7.515625 13.914063-15.355469 13.914063zm0 0" fill="#594f69"/><path d="m314.320312 25.753906c0 14.226563-11.53125 25.757813-25.753906 25.757813-14.226562 0-25.757812-11.53125-25.757812-25.757813 0-14.222656 11.53125-25.753906 25.757812-25.753906 14.222656 0 25.753906 11.53125 25.753906 25.753906zm0 0" fill="#ebad88"/><path d="m257.660156 209.128906h61.8125v-126.714844c0-17.070312-13.839844-30.90625-30.90625-30.90625-17.070312 0-30.90625 13.839844-30.90625 30.90625zm0 0" fill="#ffd659"/><path d="m288.566406 51.507812c-5.632812 0-10.90625 1.515626-15.453125 4.144532 9.234375 5.34375 15.453125 15.324218 15.453125 26.761718v126.714844h30.902344v-126.714844c.003906-17.066406-13.835938-30.90625-30.902344-30.90625zm0 0" fill="#ffbd54"/><path d="m381.371094 222.265625c-6.503906.003906-12.554688-4.136719-14.683594-10.65625l-24.730469-75.65625-53.324219-53.644531c-6.019531-6.050782-5.988281-15.835938.0625-21.855469 6.054688-6.015625 15.839844-5.984375 21.855469.066406l55.914063 56.25c1.699218 1.710938 2.976562 3.796875 3.726562 6.089844l25.871094 79.152344c2.652344 8.109375-1.777344 16.835937-9.886719 19.488281-1.59375.519531-3.214843.765625-4.804687.765625zm0 0" fill="#ebad88"/><path d="m353.78125 446.46875-94.496094-199.976562c-11.425781-24.023438-35.996094-39.542969-62.59375-39.542969h-108.808594c-4.144531 0-7.5 3.359375-7.5 7.5s3.355469 7.5 7.5 7.5h108.808594c20.84375 0 40.09375 12.160156 49.039063 30.964843l94.488281 199.964844c1.28125 2.707032 3.976562 4.296875 6.785156 4.296875 1.074219 0 2.164063-.234375 3.199219-.722656 3.746094-1.769531 5.347656-6.238281 3.578125-9.984375zm0 0" fill="#cad2db"/><path d="m72.429688 175.132812h30.902343v269.90625h-30.902343zm0 0" fill="#d5dfe8"/><path d="m142.679688 190.582031h-74.171876c-2.277343 0-4.121093-1.84375-4.121093-4.121093v-22.664063c0-2.273437 1.84375-4.121094 4.121093-4.121094h57.6875c11.378907 0 20.605469 9.226563 20.605469 20.605469v6.179688c0 2.277343-1.84375 4.121093-4.121093 4.121093zm0 0" fill="#ff2c5c"/><path d="m126.195312 159.679688h-30.902343c11.378906 0 20.601562 9.222656 20.601562 20.601562v6.183594c0 2.273437-1.84375 4.121094-4.121093 4.121094h30.90625c2.277343 0 4.121093-1.847657 4.121093-4.121094v-6.183594c0-11.378906-9.226562-20.601562-20.605469-20.601562zm0 0" fill="#e62753"/><path d="m461.234375 484.355469h-410.46875c-14.664063 0-26.554687-11.886719-26.554687-26.554688v-1.65625c0-14.667969 11.886718-26.558593 26.554687-26.558593h410.46875c14.664063 0 26.554687 11.890624 26.554687 26.558593v1.65625c0 14.667969-11.886718 26.554688-26.554687 26.554688zm0 0" fill="#ff2c5c"/><path d="m462.035156 429.585938h-30.902344c14.222657 0 25.753907 12.261718 25.753907 27.386718s-11.53125 27.386719-25.753907 27.386719h30.902344c14.226563 0 25.753906-12.261719 25.753906-27.386719s-11.527343-27.386718-25.753906-27.386718zm0 0" fill="#e62753"/><path d="m496.546875 512h-481.09375c-8.535156 0-15.453125-6.917969-15.453125-15.453125s6.917969-15.453125 15.453125-15.453125h481.09375c8.535156 0 15.453125 6.917969 15.453125 15.453125s-6.917969 15.453125-15.453125 15.453125zm0 0" fill="#685c79"/><path d="m496.546875 481.09375h-30.90625c8.535156 0 15.453125 6.917969 15.453125 15.453125s-6.917969 15.453125-15.453125 15.453125h30.90625c8.535156 0 15.453125-6.917969 15.453125-15.453125s-6.917969-15.453125-15.453125-15.453125zm0 0" fill="#594f69"/></svg>